<?xml version="1.0" encoding="UTF-8"?><svg id="Layer_2" xmlns="http://www.w3.org/2000/svg" viewBox="0 0 1401.49 1401.49"><defs><style>.cls-1{fill:#ff006a;}.cls-2{fill:#c1ff72;}</style></defs><g id="Layer_1-2"><path class="cls-1" d="M700.75,1401.49c-94.53,0-186.32-18.55-272.81-55.13-83.46-35.3-158.39-85.81-222.69-150.11s-114.81-139.23-150.11-222.69C18.55,887.06,0,795.27,0,700.75s18.55-186.32,55.13-272.81c35.3-83.46,85.81-158.39,150.11-222.69S344.47,90.44,427.93,55.13C514.43,18.55,606.22,0,700.75,0s186.32,18.55,272.81,55.13c83.46,35.3,158.39,85.81,222.69,150.11s114.81,139.23,150.11,222.69c36.58,86.5,55.13,178.28,55.13,272.81s-18.55,186.32-55.13,272.81c-35.3,83.46-85.81,158.39-150.11,222.69-64.3,64.3-139.23,114.81-222.69,150.11-86.5,36.58-178.28,55.13-272.81,55.13Z"/><g><path class="cls-2" d="M702.45,1093.52c6-32.23-19.09-59.34-58.55-66.69-42.35-7.89-79.85,14.42-87.55,55.74-14.93,80.16,107.38,93.74,97.96,144.36-.73,3.92-3.4,7.92-5.49,8.81-34.71-6.46-73.65-17.77-99.72-60.25l-.62-.11-8.92,47.93,113.63,21.16c6.06-2.72,11.74-9.14,13.32-17.61,10.93-58.67-89.44-86.77-76.86-154.32,4.85-26.04,23.66-43.27,53-37.8,27.89,5.19,36.84,27.17,33.8,43.48-3.27,17.56-17.13,32.3-36.14,28.76-2.89-.54-5.71-1.49-8.86-2.93-1.8,3.94-.94,22.27,23.44,26.81,15.7,2.92,41.45-4.47,47.57-37.32Z"/><path class="cls-2" d="M540.94,1061.64c20.01-30.1,15.01-60.93-10.19-77.68-27.3-18.15-79.87-12.71-108.6,30.52-22.1,33.25-14.84,61.05,10.19,77.68,27.48,18.26,77.66,16.04,108.6-30.52Zm-26.02-17.8c-27.1,40.78-55.58,57.43-74.84,44.64-12.95-8.61-10.7-28.31,8.96-57.89,28.15-42.35,54.54-55.85,73.79-43.06,12.95,8.61,9.54,30.06-7.91,56.31Z"/><path class="cls-2" d="M469.77,939.05l-28.84-33.13-.47,.41c-5.26,22.13-21.34,41.42-41.15,58.67-19.81,17.24-41.14,30.52-63.78,32.68l-.47,.41,28.84,33.13,.47-.42c5.26-22.13,21.34-41.42,41.15-58.67,19.81-17.24,41.14-30.52,63.78-32.68l.47-.41Zm-128.91,82.69c-8.69-9.98-23.95-11.19-34.1-2.36-9.98,8.69-11.05,24.11-2.36,34.09,8.83,10.15,24.25,11.21,34.23,2.52,10.15-8.83,11.05-24.11,2.22-34.26Z"/><path class="cls-2" d="M416.1,866.55l-.56,.29c-10.24,20.31-30.36,35.34-53.64,47.52l-6.7,3.51c-18.24,9.55-40.26-1.7-51.37-22.93-6.23-11.92-7.16-26.38-.37-35.15l-.29-.56-38.73,20.27c1.62,6.27,3.4,11.03,6.71,17.36,12.18,23.27,38.52,34.63,64.68,31.14l-36.31,19.01,12.56,23.55,.56-.29c10.25-20.31,30.37-35.34,53.64-47.52,23.28-12.18,47.1-20.14,69.62-16.98l.56-.29-20.36-38.92Z"/><path class="cls-2" d="M380.14,750.12c-2.32-14.31-8.73-31.58-19.76-37.89l-28.21,4.57,.1,.63c19.05,5.85,36.79,16.82,40.08,37.15,3.22,19.91-15.77,32.78-40.43,39.54,2.69-7.03,4.29-15.59,2.47-26.8-5.78-35.68-33.04-50.21-69.14-44.36-20.54,3.32-31.71,13.22-29.99,23.8l5.78,35.68c5.34,32.98,45.75,51.14,81.64,45.32,35.06-5.68,64.72-32.84,57.46-77.65Zm-57.67,46.17c-2.07,.33-4.15,.67-6.22,1.01-31.11,5.04-65.16-6.69-69.67-34.48-1.78-10.99-4.91-22.41,6.92-24.33,29.05-4.7,64.76,21.23,68.75,45.92,.74,4.56,.76,8.6,.22,11.89Z"/><path class="cls-2" d="M326.78,647.34c10.73-22.17,15.46-43.09,33.23-39.8,13.84,2.57,18.1,23.44,15.54,37.29-2.65,14.26-24.84,41.78-58.99,51.91l-.11,.62,40.71,7.54c17.32-19.66,22.12-32.88,26.29-55.4,6.28-33.89-7.06-58.8-32.27-63.47-29.14-5.4-38.54,17.66-52.55,43.7-11.05,20.4-22.19,45.9-41.4,42.34-8.06-1.49-14.35-9.07-13.16-15.48,4.63-25,20.8-59.19,57.92-69.2l.15-.83-50.21-9.3-14.78,79.76c-2.41,13.02,10.94,29.81,29.7,33.51,18.35,3.61,41.63-5.54,59.93-43.18Z"/><path class="cls-2" d="M397.15,591.55l18.69-39.75-.57-.27c-22.37,4.11-46.51-2.83-70.28-14.01s-44.52-25.34-55.61-45.2l-.57-.27-18.69,39.74,.57,.27c22.37-4.11,46.51,2.83,70.28,14.01,23.78,11.18,44.52,25.34,55.62,45.19l.57,.27Zm-127.64-84.64c5.63-11.98,.58-26.43-11.59-32.16-11.98-5.63-26.52-.39-32.16,11.59-5.72,12.17-.48,26.71,11.5,32.34,12.17,5.72,26.52,.4,32.24-11.78Z"/><path class="cls-2" d="M404.51,431.03c24.16,34.39,71.17,39.89,107.45,14.4,51.07-35.88,44.95-81.15,21.03-115.2-13.29-18.92-32.67-27.13-55.11-24.71l-8.41,25.68c29.54-3.29,46.34,4.17,62.41,27.05,10.99,15.65,10.55,40.61-2.69,59.42-.14-10.43-4.94-23.49-11.59-32.95-35.03-49.86-112.05-42.51-139.83-82.06-5.43-7.74,3.3-15.41,7.43-18.31l8.6-6.04c26.31-18.48,53.24-16.34,76.86-3.92l.52-.36-28.03-39.9-98.71,69.34c-7.4,5.2-5.58,10.34-2.19,15.16,9.06,12.9,29.66,18.46,54.1,23.63-13.66,25.52-14.78,56.1,8.17,88.78Zm107.14-39.06c7.85,11.18,11.19,23.98,9.25,35.1-1.77,1.5-3.54,3.01-5.6,4.45-25.28,17.76-71.59,7.4-98.53-30.94-13.05-18.57-19.09-41.81-12.99-56.88,39.08,7.73,84.92,15.59,107.88,48.27Z"/><path class="cls-2" d="M642.72,223.98l8.22,163.5,38.83-1.95-.03-.63c-17.16-27.33-32.64-63.17-35.18-113.75l-.81-16.16c16.06,1.3,28.94,10.54,37.56,22.94l.63-.03,11.78-33.63-50.38,2.53-.69-13.85c-1.44-28.54,9.76-40.26,26.34-41.09,11.96-.6,24.19,4.05,33.94,13.86l.63-.03-1.59-31.69c-8.05-1.07-14.8-1.36-24.24-.89-29.17,1.47-46.45,21.91-44.99,50.87Z"/><path class="cls-2" d="M765.63,392.08l.14-.61c-8.73-21-7.04-46.06-1.12-71.65l1.7-7.37c4.64-20.07,27.52-29.45,50.85-24.05,13.1,3.03,24.68,11.74,26.91,22.61l.61,.15,9.85-42.59c-5.81-2.85-10.58-4.6-17.55-6.21-25.59-5.92-51.37,6.67-65.76,28.8l9.23-39.93-26.05-5.81-.14,.61c8.73,21,7.04,46.06,1.12,71.66s-15.4,48.85-32.46,63.89l-.15,.61,42.8,9.89Z"/><path class="cls-2" d="M824.53,409.55l39.33,19.55,.28-.56c-3.62-22.45,3.84-46.44,15.54-69.96,11.69-23.53,26.31-43.95,46.4-54.62l.28-.56-39.33-19.55-.28,.56c3.63,22.45-3.84,46.44-15.54,69.96-11.69,23.53-26.31,43.95-46.4,54.61l-.28,.57Zm87.4-125.76c11.85,5.9,26.41,1.16,32.4-10.88,5.9-11.85,.97-26.51-10.88-32.4-12.04-5.99-26.69-1.07-32.59,10.79-5.98,12.05-.97,26.51,11.07,32.49Z"/><path class="cls-2" d="M917.81,472.21c11.02,9.43,27.07,18.47,39.56,16.16l18.59-21.71-.48-.41c-18.32,7.83-38.95,10.92-54.59-2.48-15.32-13.12-9.14-35.21,5.33-56.3,2.49,7.11,6.8,14.67,15.42,22.06,27.46,23.51,57.66,16.99,81.44-10.78,13.53-15.8,15.67-30.57,7.53-37.55l-27.46-23.51c-25.38-21.73-67.95-9.49-91.6,18.13-23.1,26.98-28.21,66.87,6.27,96.4Zm14.21-72.49c1.37-1.59,2.73-3.19,4.1-4.79,20.5-23.95,54.07-36.98,75.46-18.67,8.46,7.24,18.22,13.94,10.43,23.04-19.14,22.35-63.15,25.61-82.15,9.34-3.51-3.01-6.14-6.08-7.85-8.93Z"/><path class="cls-2" d="M959.4,510.03l16.83-9.53c51.75-29.3,96.13-13.62,109.28,9.6,7.97,14.08,4.52,31.01-15.78,42.51-24.87,14.08-51.18,16.66-81.3,7.4l-.55,.31,21.23,37.49,70.51-39.68c27.27-14.96,53.38-30.7,40.74-53.02-13.88-24.51-63.15-34.76-93.77-29.98,22.84-7.86,44.77-15.2,68.51-9.08l.55-.31-18.74-33.1-122.16,69.17,4.66,8.23Z"/><path class="cls-2" d="M1073.69,589.11c-30.77,4.56-61.82,28.71-56.18,66.75,2.77,18.71,13.46,34.97,15.41,48.07,.86,5.82-.06,11.05-3.84,15.65l207.89-30.8-6.41-43.24-.63,.09c-19.43,25.19-49.48,40.27-80.04,46.28,10.49-10.9,16.98-27.37,14.39-44.83-6.19-41.78-48.6-64.18-90.59-57.96Zm-17.66,32.79c46.57-6.9,91.19,17.51,95.1,43.91,2.68,18.08-13.05,28.06-28.43,30.34-34.51,5.11-91.2,2.47-97.64-40.98-2.37-16.01,11.23-30.34,30.97-33.27Z"/><path class="cls-2" d="M1070.63,784.57c-11.48,21.79-16.92,42.54-34.57,38.64-13.75-3.04-17.29-24.05-14.26-37.8,3.13-14.16,26.24-40.91,60.72-49.87l.14-.61-40.43-8.92c-17.98,19.06-23.22,32.1-28.16,54.47-7.43,33.66,5.05,59.01,30.09,64.54,28.94,6.39,39.11-16.33,54.01-41.89,11.73-20.01,23.73-45.12,42.82-40.91,8,1.77,14.03,9.55,12.63,15.92-5.48,24.83-22.8,58.45-60.24,67.19l-.18,.82,49.87,11.01,17.48-79.21c2.85-12.93-9.92-30.17-28.54-34.49-18.22-4.23-41.8,4.12-61.38,41.12Z"/><path class="cls-2" d="M1013.98,942.47l-18.21,20.35,13.67,23.79-25.17-10.96-18.21,20.35,2.94-27.27-25.19-11.25,26.79-5.65,2.67-27.23,13.94,23.79,26.77-5.94Z"/><path class="cls-2" d="M941.31,1017.16l-22.94,14.81,6.92,26.56-21.4-17.21-22.94,14.81,10.04-25.5-21.33-17.52,27.35,1.63,9.75-25.56,7.17,26.65,27.38,1.33Z"/><path class="cls-2" d="M851.51,1070.03l-26.04,8.21-.35,27.46-16.08-22.25-26.04,8.21,16.44-21.96-15.96-22.5,25.94,8.79,16.17-22.08-.1,27.58,26.04,8.54Z"/></g></g></svg>