<?xml version="1.0" encoding="UTF-8"?><svg id="Layer_2" xmlns="http://www.w3.org/2000/svg" viewBox="0 0 349.76 349.76"><defs><style>.cls-1{fill:#ff006a;}.cls-2{fill:#c1ff72;}</style></defs><g id="Layer_1-2"><g><path class="cls-1" d="M174.88,349.76c-23.6,0-46.51-4.63-68.07-13.75-20.83-8.81-39.53-21.42-55.58-37.47-16.06-16.06-28.67-34.76-37.47-55.58C4.63,221.39,0,198.49,0,174.88s4.63-46.51,13.75-68.07c8.81-20.83,21.42-39.53,37.47-55.58,16.06-16.06,34.76-28.67,55.58-37.47C128.37,4.63,151.28,0,174.88,0s46.51,4.63,68.07,13.75c20.83,8.81,39.53,21.42,55.58,37.47,16.06,16.06,28.67,34.76,37.47,55.58,9.12,21.57,13.75,44.47,13.75,68.07s-4.63,46.51-13.75,68.07c-8.81,20.83-21.42,39.53-37.47,55.58-16.06,16.06-34.76,28.67-55.58,37.47-21.57,9.12-44.47,13.75-68.07,13.75Z"/><g><path class="cls-2" d="M143.86,79.43c1.04,8.37,9.3,13.07,19.55,11.79,11-1.36,18.46-9.75,17.12-20.48-2.58-20.82-33.63-14.62-35.26-27.77-.13-1.02,.22-2.21,.66-2.59,9.01-1.12,19.44-1.38,29.14,7.01l.16-.02-1.54-12.45-29.51,3.66c-1.27,1.14-2.17,3.16-1.89,5.36,1.89,15.24,28.69,14.31,30.86,31.85,.84,6.76-2.43,12.45-10.05,13.4-7.24,.9-11.15-3.79-11.67-8.03-.57-4.56,1.68-9.25,6.62-9.87,.75-.09,1.52-.08,2.4,.03,.14-1.11-1.5-5.53-7.83-4.75-4.08,.51-9.81,4.32-8.76,12.85Z"/><path class="cls-2" d="M184.68,74.52c-2.42,8.98,1.31,16.09,8.83,18.12,8.14,2.2,20.52-3.42,24-16.32,2.68-9.92-1.37-16.1-8.83-18.12-8.19-2.21-20.25,2.43-24,16.32Zm7.8,2.22c3.28-12.16,8.87-18.55,14.61-17,3.86,1.04,4.92,6.03,2.54,14.85-3.41,12.63-8.74,18.08-14.48,16.53-3.86-1.04-4.78-6.55-2.67-14.38Z"/><path class="cls-2" d="M211.08,98.11l9.83,5.57,.08-.14c-.62-5.82,1.64-11.87,4.97-17.75,3.33-5.88,7.37-10.92,12.68-13.38l.08-.14-9.83-5.57-.08,.14c.62,5.82-1.64,11.87-4.97,17.75-3.33,5.88-7.37,10.92-12.68,13.38l-.08,.14Zm24.21-31.08c2.96,1.68,6.77,.67,8.48-2.34,1.68-2.96,.62-6.8-2.34-8.48-3.01-1.71-6.84-.65-8.52,2.32-1.71,3.01-.62,6.8,2.39,8.5Z"/><path class="cls-2" d="M229.47,110.36l.11-.12c.66-5.81,4.17-11.24,8.7-16.25l1.3-1.45c3.55-3.93,9.87-3.18,14.44,.95,2.57,2.32,4.08,5.72,3.23,8.45l.12,.11,7.53-8.35c-.95-1.37-1.8-2.36-3.17-3.59-5.02-4.53-12.39-4.92-18.39-1.74l7.06-7.83-5.13-4.56-.11,.12c-.66,5.81-4.17,11.24-8.7,16.25-4.53,5.02-9.57,9.06-15.28,10.31l-.11,.12,8.39,7.57Z"/><path class="cls-2" d="M248.07,134.28c1.89,3.22,5.03,6.76,8.26,7.25l6.34-3.72-.08-.14c-5.11,.37-10.39-.61-13.07-5.18-2.63-4.48,.73-9.33,6.02-13.25,0,1.94,.42,4.14,1.9,6.66,4.7,8.02,12.6,8.97,20.71,4.21,4.62-2.71,6.38-6.12,4.98-8.5l-4.71-8.02c-4.35-7.41-15.73-8.01-23.8-3.28-7.88,4.62-12.47,13.9-6.56,23.97Zm9.54-16.44c.47-.27,.93-.55,1.4-.82,7-4.1,16.25-4.46,19.92,1.79,1.45,2.47,3.26,4.92,.6,6.48-6.53,3.83-17.51,.93-20.76-4.62-.6-1.03-.98-1.99-1.16-2.83Z"/><path class="cls-2" d="M256.85,159.34c.79,3.65,2.66,8,5.58,9.47l7.19-1.55-.03-.16c-4.97-1.25-9.67-3.84-10.79-9.01-1.09-5.07,3.62-8.63,9.86-10.69-.6,1.84-.89,4.06-.28,6.92,1.96,9.09,9.15,12.47,18.35,10.49,5.23-1.13,7.97-3.82,7.39-6.51l-1.96-9.09c-1.81-8.4-12.43-12.53-21.57-10.57-8.93,1.92-16.2,9.29-13.74,20.71Zm14.21-12.62c.53-.11,1.06-.23,1.59-.34,7.93-1.7,16.83,.86,18.35,7.94,.6,2.8,1.56,5.69-1.46,6.34-7.4,1.59-16.92-4.6-18.27-10.89-.25-1.16-.31-2.2-.21-3.05Z"/><path class="cls-2" d="M272.09,183.79c-2.37,5.87-3.23,11.33-7.85,10.79-3.6-.42-5.05-5.71-4.63-9.3,.43-3.71,5.66-11.15,14.25-14.34l.02-.16-10.58-1.24c-4.11,5.34-5.11,8.82-5.8,14.67-1.03,8.81,2.82,14.97,9.37,15.74,7.57,.88,9.59-5.19,12.74-12.12,2.49-5.42,4.91-12.16,9.9-11.58,2.09,.24,3.84,2.08,3.64,3.75-.76,6.5-4.32,15.55-13.68,18.76l-.02,.21,13.05,1.52,2.42-20.73c.4-3.38-3.32-7.46-8.2-8.09-4.77-.61-10.59,2.14-14.64,12.11Z"/><path class="cls-2" d="M255.33,198.26l-3.95,10.59,.15,.06c5.65-1.53,11.99-.26,18.32,2.1,6.33,2.36,11.95,5.55,15.22,10.41l.15,.06,3.95-10.59-.15-.06c-5.65,1.53-11.98,.26-18.32-2.1-6.33-2.36-11.95-5.55-15.22-10.41l-.15-.06Zm34.52,18.99c-1.19,3.19,.41,6.79,3.65,8,3.19,1.19,6.81-.46,8-3.65,1.21-3.24-.44-6.86-3.63-8.05-3.24-1.21-6.81,.46-8.02,3.7Z"/><path class="cls-2" d="M258.61,237.3c-7.18-8.09-19.36-8.12-27.89-.55-12.01,10.66-9.12,22.05-2.02,30.06,3.95,4.45,9.14,5.98,14.81,4.71l1.4-6.81c-7.45,1.7-11.96,.28-16.74-5.09-3.27-3.68-3.88-10.07-1.04-15.27,.34,2.66,1.95,5.86,3.92,8.08,10.41,11.72,29.88,7.6,38.13,16.9,1.62,1.82-.39,4.04-1.36,4.9l-2.02,1.79c-6.19,5.49-13.13,5.73-19.53,3.24l-.12,.11,8.33,9.38,23.21-20.6c1.74-1.54,1.12-2.81,.12-3.94-2.69-3.03-8.12-3.85-14.52-4.46,2.75-6.92,2.14-14.77-4.68-22.45Zm-26.25,13.11c-2.33-2.63-3.56-5.8-3.39-8.7,.41-.43,.82-.87,1.3-1.3,5.94-5.28,18.08-3.98,26.09,5.04,3.88,4.37,6.1,10.13,4.98,14.16-10.21-.84-22.16-1.51-28.98-9.19Z"/><path class="cls-2" d="M207.2,296.4l-8.16-41.32-9.81,1.94,.03,.16c5.38,6.32,10.65,14.87,13.18,27.65l.81,4.08c-4.14,.26-7.76-1.61-10.41-4.45l-.16,.03-1.75,9,12.73-2.51,.69,3.5c1.42,7.21-.99,10.61-5.18,11.44-3.02,.6-6.31-.13-9.16-2.27l-.16,.03,1.58,8.01c2.09-.03,3.82-.2,6.2-.67,7.37-1.46,11.01-7.3,9.57-14.62Z"/><path class="cls-2" d="M170.77,258.24v.16c3.07,4.97,3.67,11.41,3.22,18.15l-.13,1.94c-.35,5.29-5.78,8.61-11.93,8.2-3.45-.23-6.75-1.97-7.76-4.64h-.16s-.75,11.21-.75,11.21c1.59,.48,2.88,.73,4.71,.86,6.74,.45,12.77-3.8,15.52-10.01l-.7,10.52,6.86,.41v-.16c-3.07-4.98-3.67-11.41-3.22-18.15s1.9-13.04,5.62-17.56v-.16s-11.26-.75-11.26-.75Z"/><path class="cls-2" d="M156.2,256.49l-10.84-3.18-.04,.16c1.93,5.52,1.12,11.94-.79,18.42-1.9,6.48-4.69,12.32-9.29,15.92l-.05,.16,10.84,3.18,.04-.16c-1.93-5.52-1.12-11.93,.79-18.42,1.9-6.48,4.69-12.32,9.29-15.92l.05-.16Zm-16.48,35.79c-3.27-.96-6.74,.89-7.72,4.21-.96,3.27,.95,6.76,4.21,7.72,3.32,.97,6.81-.93,7.77-4.2,.98-3.32-.95-6.76-4.27-7.73Z"/><path class="cls-2" d="M130.67,245.44c-3.24-1.84-7.74-3.34-10.78-2.15l-3.63,6.39,.14,.08c4.24-2.87,9.3-4.66,13.91-2.05,4.51,2.56,4.03,8.45,1.41,14.48-.98-1.67-2.44-3.37-4.97-4.81-8.09-4.59-15.39-1.47-20.04,6.71-2.64,4.65-2.46,8.49-.06,9.85l8.09,4.59c7.48,4.25,17.63-.93,22.25-9.06,4.51-7.94,3.85-18.27-6.3-24.04Zm-.04,19c-.27,.47-.54,.94-.8,1.41-4.01,7.05-11.85,11.99-18.14,8.41-2.49-1.42-5.28-2.63-3.76-5.31,3.74-6.58,14.69-9.56,20.29-6.38,1.03,.59,1.85,1.24,2.42,1.87Z"/><path class="cls-2" d="M119.11,238.61l-3.73,3.29c-11.48,10.11-23.48,8.51-28.02,3.36-2.75-3.12-2.78-7.57,1.73-11.54,5.52-4.86,12-6.9,20.08-6.16l.12-.11-7.33-8.32-15.65,13.72c-6.07,5.21-11.81,10.55-7.45,15.5,4.79,5.43,17.74,5.41,25.19,2.59-5.33,3.19-10.47,6.19-16.77,5.91l-.12,.11,6.47,7.34,27.1-23.87-1.61-1.83Z"/><path class="cls-2" d="M86.81,225.88c7.46-2.89,13.88-10.71,10.3-19.94-1.76-4.54-5.37-8.01-6.6-11.19-.55-1.41-.61-2.78,.07-4.15l-50.41,19.54,4.06,10.48,.15-.06c3.44-7.42,10.13-12.91,17.45-16.16-2.01,3.33-2.71,7.83-1.06,12.07,3.93,10.13,15.84,13.34,26.02,9.4Zm2.57-9.23c-11.29,4.38-23.87,.79-26.35-5.61-1.7-4.39,1.68-7.78,5.41-9.23,8.37-3.24,22.74-5.8,26.83,4.74,1.5,3.88-1.09,8.25-5.88,10.11Z"/><path class="cls-2" d="M76.46,177.91c1.55-6.14,1.65-11.66,6.3-11.76,3.62-.08,5.78,4.96,5.86,8.58,.08,3.73-4.08,11.82-12.15,16.15v.16s10.65-.22,10.65-.22c3.34-5.86,3.86-9.44,3.73-15.33-.19-8.86-4.85-14.44-11.44-14.31-7.62,.16-8.79,6.46-10.96,13.75-1.72,5.71-3.19,12.72-8.22,12.83-2.11,.04-4.09-1.54-4.12-3.21-.14-6.54,2.15-16,10.98-20.45v-.22s-13.14,.28-13.14,.28l.44,20.86c.07,3.4,4.31,6.94,9.23,6.89,4.81-.05,10.2-3.57,12.85-14.01Z"/><path class="cls-2" d="M79.95,137.55l3.12-6.3-5.02-4.97,6.99,1,3.13-6.3,1.14,6.96,7.01,1.07-6.26,3.23,1.21,6.94-5.09-4.95-6.23,3.31Z"/><path class="cls-2" d="M92.04,115.15l4.6-5.32-3.63-6.06,6.53,2.71,4.6-5.32-.64,7.02,6.53,2.78-6.87,1.58-.56,7.02-3.7-6.06-6.85,1.65Z"/><path class="cls-2" d="M109.33,96.48l5.77-4.01-2-6.77,5.65,4.25,5.77-4.01-2.37,6.64,5.63,4.32-7.04-.19-2.29,6.66-2.07-6.79-7.05-.11Z"/></g></g></g></svg>